<mxfile host="Electron" agent="Mozilla/5.0 (X11; Linux x86_64) AppleWebKit/537.36 (KHTML, like Gecko) draw.io/24.7.17 Chrome/128.0.6613.36 Electron/32.0.1 Safari/537.36" version="24.7.17">
  <diagram name="Strona-1" id="lEdIFTAH9ftiBRLtzP9-">
    <mxGraphModel dx="610" dy="355" grid="1" gridSize="10" guides="1" tooltips="1" connect="1" arrows="1" fold="1" page="1" pageScale="1" pageWidth="827" pageHeight="1169" math="0" shadow="0">
      <root>
        <mxCell id="0" />
        <mxCell id="1" parent="0" />
        <mxCell id="Xw1Vv-_w57JjWqPTpkqS-1" value="&lt;p style=&quot;line-height: 60%;&quot;&gt;JS RUNTIME&lt;/p&gt;" style="rounded=0;whiteSpace=wrap;html=1;verticalAlign=top;" vertex="1" parent="1">
          <mxGeometry x="120" y="120" width="970" height="510" as="geometry" />
        </mxCell>
        <mxCell id="Xw1Vv-_w57JjWqPTpkqS-2" value="JS ENGINE V8" style="rounded=0;whiteSpace=wrap;html=1;verticalAlign=top;" vertex="1" parent="1">
          <mxGeometry x="160" y="160" width="550" height="450" as="geometry" />
        </mxCell>
        <mxCell id="Xw1Vv-_w57JjWqPTpkqS-3" value="HEAP" style="rounded=0;whiteSpace=wrap;html=1;verticalAlign=top;" vertex="1" parent="1">
          <mxGeometry x="400" y="190" width="280" height="130" as="geometry" />
        </mxCell>
        <mxCell id="Xw1Vv-_w57JjWqPTpkqS-4" value="CALL STACK" style="rounded=0;whiteSpace=wrap;html=1;verticalAlign=top;fillColor=#d5e8d4;strokeColor=#82b366;" vertex="1" parent="1">
          <mxGeometry x="410" y="220" width="90" height="90" as="geometry" />
        </mxCell>
        <mxCell id="Xw1Vv-_w57JjWqPTpkqS-10" style="edgeStyle=orthogonalEdgeStyle;rounded=0;orthogonalLoop=1;jettySize=auto;html=1;entryX=0;entryY=0.5;entryDx=0;entryDy=0;" edge="1" parent="1" source="Xw1Vv-_w57JjWqPTpkqS-5" target="Xw1Vv-_w57JjWqPTpkqS-3">
          <mxGeometry relative="1" as="geometry" />
        </mxCell>
        <mxCell id="Xw1Vv-_w57JjWqPTpkqS-5" value="C++ Core" style="rounded=1;whiteSpace=wrap;html=1;" vertex="1" parent="1">
          <mxGeometry x="160" y="540" width="100" height="60" as="geometry" />
        </mxCell>
        <mxCell id="Xw1Vv-_w57JjWqPTpkqS-6" value="QUEUE MESSAGES" style="rounded=0;whiteSpace=wrap;html=1;verticalAlign=top;fillColor=#dae8fc;strokeColor=#6c8ebf;" vertex="1" parent="1">
          <mxGeometry x="580" y="220" width="90" height="90" as="geometry" />
        </mxCell>
        <mxCell id="Xw1Vv-_w57JjWqPTpkqS-8" value="Async" style="rounded=0;whiteSpace=wrap;html=1;verticalAlign=top;" vertex="1" parent="1">
          <mxGeometry x="400" y="340" width="280" height="130" as="geometry" />
        </mxCell>
        <mxCell id="Xw1Vv-_w57JjWqPTpkqS-9" style="edgeStyle=orthogonalEdgeStyle;rounded=0;orthogonalLoop=1;jettySize=auto;html=1;entryX=0;entryY=0.5;entryDx=0;entryDy=0;" edge="1" parent="1" source="Xw1Vv-_w57JjWqPTpkqS-5" target="Xw1Vv-_w57JjWqPTpkqS-8">
          <mxGeometry relative="1" as="geometry" />
        </mxCell>
        <mxCell id="Xw1Vv-_w57JjWqPTpkqS-11" value="EVENT LOOP" style="rounded=0;whiteSpace=wrap;html=1;verticalAlign=top;fillColor=#f8cecc;strokeColor=#b85450;" vertex="1" parent="1">
          <mxGeometry x="160" y="340" width="140" height="130" as="geometry" />
        </mxCell>
        <mxCell id="Xw1Vv-_w57JjWqPTpkqS-12" value="Task Queue" style="rounded=0;whiteSpace=wrap;html=1;verticalAlign=top;" vertex="1" parent="1">
          <mxGeometry x="414" y="370" width="100" height="90" as="geometry" />
        </mxCell>
        <mxCell id="Xw1Vv-_w57JjWqPTpkqS-13" value="Microtask" style="rounded=0;whiteSpace=wrap;html=1;verticalAlign=top;" vertex="1" parent="1">
          <mxGeometry x="550" y="370" width="120" height="90" as="geometry" />
        </mxCell>
        <mxCell id="Xw1Vv-_w57JjWqPTpkqS-14" value="WEBAPI" style="rounded=0;whiteSpace=wrap;html=1;" vertex="1" parent="1">
          <mxGeometry x="930" y="160" width="120" height="60" as="geometry" />
        </mxCell>
        <mxCell id="Xw1Vv-_w57JjWqPTpkqS-15" value="ELECTORN" style="rounded=0;whiteSpace=wrap;html=1;" vertex="1" parent="1">
          <mxGeometry x="930" y="270" width="120" height="60" as="geometry" />
        </mxCell>
        <mxCell id="Xw1Vv-_w57JjWqPTpkqS-16" value="TAURI" style="rounded=0;whiteSpace=wrap;html=1;" vertex="1" parent="1">
          <mxGeometry x="930" y="380" width="120" height="60" as="geometry" />
        </mxCell>
        <mxCell id="Xw1Vv-_w57JjWqPTpkqS-17" value="WEB3 API" style="rounded=0;whiteSpace=wrap;html=1;" vertex="1" parent="1">
          <mxGeometry x="930" y="490" width="120" height="60" as="geometry" />
        </mxCell>
        <mxCell id="Xw1Vv-_w57JjWqPTpkqS-28" value="1" style="rounded=0;whiteSpace=wrap;html=1;" vertex="1" parent="1">
          <mxGeometry x="434.5" y="260" width="41" height="50" as="geometry" />
        </mxCell>
        <mxCell id="Xw1Vv-_w57JjWqPTpkqS-32" value="" style="group" vertex="1" connectable="0" parent="1">
          <mxGeometry x="560" y="260" width="120" height="110" as="geometry" />
        </mxCell>
        <mxCell id="Xw1Vv-_w57JjWqPTpkqS-29" value="obiekt3d" style="rounded=0;whiteSpace=wrap;html=1;" vertex="1" parent="Xw1Vv-_w57JjWqPTpkqS-32">
          <mxGeometry x="50" width="41" height="50" as="geometry" />
        </mxCell>
        <mxCell id="Xw1Vv-_w57JjWqPTpkqS-31" value="" style="group" vertex="1" connectable="0" parent="Xw1Vv-_w57JjWqPTpkqS-32">
          <mxGeometry width="120" height="110" as="geometry" />
        </mxCell>
        <mxCell id="Xw1Vv-_w57JjWqPTpkqS-23" value="1" style="rounded=0;whiteSpace=wrap;html=1;" vertex="1" parent="Xw1Vv-_w57JjWqPTpkqS-31">
          <mxGeometry x="10" width="41" height="50" as="geometry" />
        </mxCell>
      </root>
    </mxGraphModel>
  </diagram>
</mxfile>
